<?xml version="1.0" encoding="UTF-8"?>
<svg version="1.1" xmlns="http://www.w3.org/2000/svg" width="175" height="161">
<path d="M0 0 C57.75 0 115.5 0 175 0 C175 53.13 175 106.26 175 161 C117.25 161 59.5 161 0 161 C0 107.87 0 54.74 0 0 Z " fill="#EE4037" transform="translate(0,0)"/>
<path d="M0 0 C57.75 0 115.5 0 175 0 C175 53.13 175 106.26 175 161 C117.25 161 59.5 161 0 161 C0 107.87 0 54.74 0 0 Z M50.875 17.625 C50.19977295 17.96764893 49.5245459 18.31029785 48.82885742 18.66333008 C42.71400728 21.90300997 37.81632849 26.04122926 33 31 C32.17886719 31.77988281 31.35773437 32.55976562 30.51171875 33.36328125 C17.81248308 46.6945162 11.62856763 64.63294632 11.69506836 82.81982422 C12.18781249 102.85494187 21.12076091 118.97389066 35 133 C38.92424336 137.23582004 38.92424336 137.23582004 44 139 C44 139.66 44 140.32 44 141 C46.26563003 142.1159986 48.53670543 143.21756302 50.8125 144.3125 C51.43576172 144.62123047 52.05902344 144.92996094 52.70117188 145.24804688 C62.63046488 149.98816162 71.98288441 151.4911951 82.9375 151.375 C84.57235352 151.39240234 84.57235352 151.39240234 86.24023438 151.41015625 C105.35074419 151.34202609 120.29911457 143.32755913 134 130.4375 C142.75912462 121.44964248 148.14278956 110.85272359 152 99 C152.24621094 98.27941406 152.49242187 97.55882813 152.74609375 96.81640625 C157.22152903 80.9826249 153.77964161 62.19087721 146 48 C135.75117028 30.71860095 120.65105477 17.06701679 100.71875 11.84375 C94.94135581 10.62745649 89.13624801 10.53486081 83.25 10.5 C82.22100586 10.49355469 81.19201172 10.48710937 80.13183594 10.48046875 C69.76293882 10.65289684 60.10439137 12.86409968 50.875 17.625 Z " fill="#FDFDFC" transform="translate(0,0)"/>
<path d="M0 0 C2.375 -0.125 2.375 -0.125 5 0 C11.29289565 6.29289565 11.20480501 16.05798061 11.25 24.4375 C11.21674512 32.19100242 10.46403195 39.60790416 8 47 C8 47.99 8 48.98 8 50 C7.525625 50.433125 7.05125 50.86625 6.5625 51.3125 C4.36282408 53.68814999 4.48062744 55.81584318 4 59 C0.73562283 71.24141439 -10.41868735 80.64618741 -20.875 87.1875 C-37.05500003 96.49348161 -56.60612073 99.24134696 -74.90625 95.0546875 C-82.29279723 92.98550293 -89.33058548 89.76757791 -96 86 C-96 85.34 -96 84.68 -96 84 C-96.70640625 83.77699219 -97.4128125 83.55398437 -98.140625 83.32421875 C-101.62181882 81.71202653 -104.06750258 79.48415175 -106.75 76.8125 C-107.49056641 76.12704102 -107.49056641 76.12704102 -108.24609375 75.42773438 C-111.87822064 71.84038713 -112.72418978 69.03353643 -113 64 C-113.99 63.67 -114.98 63.34 -116 63 C-117.0625 61.03125 -117.0625 61.03125 -118 58.5 C-118.33644531 57.60152344 -118.67289063 56.70304687 -119.01953125 55.77734375 C-120.39971825 51.86773037 -121.73258424 47.9475561 -123 44 C-123.495 42.515 -123.495 42.515 -124 41 C-125.48173019 30.33520121 -125.42082754 19.65620653 -124 9 C-123.34 9 -122.68 9 -122 9 C-122 7.35 -122 5.7 -122 4 C-121.67 4.99 -121.34 5.98 -121 7 C-118.36 7.33 -115.72 7.66 -113 8 C-113.00523682 9.04454346 -113.01047363 10.08908691 -113.01586914 11.1652832 C-113.03396598 15.03978621 -113.04544918 18.91428548 -113.05493164 22.78881836 C-113.05996113 24.46590808 -113.06678548 26.14299342 -113.07543945 27.82006836 C-113.08756559 30.230317 -113.09324215 32.64050768 -113.09765625 35.05078125 C-113.10281754 35.80087967 -113.10797882 36.55097809 -113.11329651 37.32380676 C-113.11363785 40.48951232 -113.00887343 42.97337972 -112 46 C-108.04 46 -104.08 46 -100 46 C-100 34.78 -100 23.56 -100 12 C-95.40567103 13.53144299 -94.26855752 17.08546218 -92 21.1875 C-91.55156738 21.9923584 -91.10313477 22.7972168 -90.64111328 23.62646484 C-86.917292 30.59365875 -84.98712514 37.12830977 -84 45 C-83.01 45 -82.02 45 -81 45 C-81 45.99 -81 46.98 -81 48 C-79.68 48 -78.36 48 -77 48 C-77 49.32 -77 50.64 -77 52 C-77.99 52.495 -77.99 52.495 -79 53 C-79.42816261 57.90008319 -79.73767772 61.70906399 -77.25 66.0625 C-72.39966903 68.95404346 -67.55823183 68.90248716 -62 69 C-61.69320312 68.21625 -61.38640625 67.4325 -61.0703125 66.625 C-60 64 -60 64 -58.875 62 C-57.43459556 58.707647 -57.60387849 56.09695186 -58.8125 52.75 C-59.96154763 50.67534517 -59.96154763 50.67534517 -63 50 C-62.67 49.01 -62.34 48.02 -62 47 C-60.68 46.67 -59.36 46.34 -58 46 C-57.67 37.09 -57.34 28.18 -57 19 C-54 20 -54 20 -52.83203125 21.7421875 C-52.49558594 22.44601563 -52.15914063 23.14984375 -51.8125 23.875 C-51.46832031 24.57367188 -51.12414062 25.27234375 -50.76953125 25.9921875 C-50 28 -50 28 -50 31 C-49.34 31 -48.68 31 -48 31 C-47.65388672 31.99580078 -47.65388672 31.99580078 -47.30078125 33.01171875 C-45.3309806 38.34497347 -43.67247338 42.46715427 -39 46 C-36.32209104 46.87238858 -36.32209104 46.87238858 -34 47 C-34.43031279 49.58187674 -34.80208329 51.65914344 -36.125 53.9375 C-37.40012802 56.9431589 -36.84148121 58.89299245 -36 62 C-34.9950183 64.30225124 -34.9950183 64.30225124 -33 66 C-29.59660418 66.34183338 -29.59660418 66.34183338 -25.875 65.875 C-24.61429687 65.76929687 -23.35359375 65.66359375 -22.0546875 65.5546875 C-20.54261719 65.28011719 -20.54261719 65.28011719 -19 65 C-17.74930199 62.49860398 -17.86697533 60.72607309 -17.875 57.9375 C-17.87242188 57.03902344 -17.86984375 56.14054687 -17.8671875 55.21484375 C-17.75261777 53.02621107 -17.75261777 53.02621107 -19 52 C-19.04080783 50.00041636 -19.04254356 47.99954746 -19 46 C-18.34 45.67 -17.68 45.34 -17 45 C-16.31527335 43.11235097 -16.31527335 43.11235097 -15.875 40.9375 C-15.70742187 40.20402344 -15.53984375 39.47054687 -15.3671875 38.71484375 C-15.18542969 37.86599609 -15.18542969 37.86599609 -15 37 C-14.34 37 -13.68 37 -13 37 C-12.71125 36.21625 -12.4225 35.4325 -12.125 34.625 C-11 32 -11 32 -9 30 C-8.835 29.154375 -8.67 28.30875 -8.5 27.4375 C-8.335 26.633125 -8.17 25.82875 -8 25 C-7.01 24.505 -7.01 24.505 -6 24 C-5.525625 22.88625 -5.05125 21.7725 -4.5625 20.625 C-3 17 -3 17 -1.50390625 15.51953125 C0.22071495 13.77699191 0.82086221 12.36445489 1.625 10.0625 C1.86476563 9.39347656 2.10453125 8.72445312 2.3515625 8.03515625 C2.98784039 6.03816358 3.51650833 4.03887525 4 2 C2.68 1.67 1.36 1.34 0 1 C0 0.67 0 0.34 0 0 Z " fill="#ED4038" transform="translate(140,55)"/>
<path d="M0 0 C7.26 0 14.52 0 22 0 C38 28.54054054 38 28.54054054 38 32 C38.99 32 39.98 32 41 32 C41 21.44 41 10.88 41 0 C48.26 0 55.52 0 63 0 C64.65 2.97 66.3 5.94 68 9 C69.70524982 11.9826256 71.41571018 14.96198959 73.13671875 17.93554688 C79 28.1330576 79 28.1330576 79 32 C80.32 32 81.64 32 83 32 C83.12117188 31.43023437 83.24234375 30.86046875 83.3671875 30.2734375 C84.04089162 27.85309308 84.97443827 25.85754694 86.125 23.625 C86.56714844 22.75875 87.00929688 21.8925 87.46484375 21 C87.97144531 20.01 88.47804688 19.02 89 18 C90.23405946 15.54410621 91.46064301 13.08449802 92.6875 10.625 C94.45833333 7.08333333 96.22916667 3.54166667 98 0 C102.95 0 107.9 0 113 0 C109.32465532 6.92661113 105.64081066 13.84511946 101.8671875 20.71875 C101.33125977 21.69569824 100.79533203 22.67264648 100.24316406 23.67919922 C99.17724141 25.61966734 98.10893977 27.55883084 97.03808594 29.49658203 C96.29606934 30.84792236 96.29606934 30.84792236 95.5390625 32.2265625 C95.09771973 33.02658691 94.65637695 33.82661133 94.20166016 34.65087891 C92.97299252 37.05279683 91.96256925 39.48100711 91 42 C84.68918542 43.11828942 78.17351255 44.21668962 72 42 C66.48733867 37.10636936 63.85215816 29.63236779 61 23 C59.86506294 20.60773626 58.68429717 18.24359435 57.5 15.875 C56.86578125 14.47894531 56.86578125 14.47894531 56.21875 13.0546875 C55.10884809 10.67260741 55.10884809 10.67260741 52 10 C52 20.56 52 31.12 52 42 C46.92625 42.1546875 46.92625 42.1546875 41.75 42.3125 C40.69006836 42.35802002 39.63013672 42.40354004 38.53808594 42.45043945 C31.65911847 42.55237444 31.65911847 42.55237444 28.515625 39.91796875 C27.17180843 37.3307755 25.96009301 34.7401915 24.87548828 32.03417969 C23.03161897 27.74998586 20.68528545 23.70704926 18.4375 19.625 C17.94314453 18.71105469 17.44878906 17.79710938 16.93945312 16.85546875 C16.46314453 15.98792969 15.98683594 15.12039062 15.49609375 14.2265625 C15.06482178 13.43846191 14.6335498 12.65036133 14.18920898 11.83837891 C13.12397134 9.85027979 13.12397134 9.85027979 11 9 C11 20.22 11 31.44 11 43 C7.37 43 3.74 43 0 43 C0 28.81 0 14.62 0 0 Z " fill="#FBF8F6" transform="translate(29,58)"/>
<path d="M0 0 C0.6875 2.0625 0.6875 2.0625 1 4 C0.34 4 -0.32 4 -1 4 C-1.185625 4.8353125 -1.185625 4.8353125 -1.375 5.6875 C-2.73446133 10.71750694 -4.7556755 13.94459438 -8 18 C-9.24016669 20.6794645 -9.24016669 20.6794645 -10 23 C-10.66 23 -11.32 23 -12 23 C-11.9175 23.721875 -11.835 24.44375 -11.75 25.1875 C-12.0758919 28.85378389 -13.59056508 30.29851237 -16 33 C-16.495 33.99 -16.495 33.99 -17 35 C-17.66 35 -18.32 35 -19 35 C-19.33 37.64 -19.66 40.28 -20 43 C-21.485 43.495 -21.485 43.495 -23 44 C-22.505 45.423125 -22.505 45.423125 -22 46.875 C-20.68018373 51.49435695 -20.43321565 56.23234344 -21 61 C-23 64 -23 64 -26.08203125 64.7578125 C-35.82083788 65.71639661 -35.82083788 65.71639661 -39.0703125 63.7421875 C-41.64291272 60.46395979 -42.00635755 58.38781073 -41.9375 54.1875 C-41 51 -41 51 -39 49 C-38.3574765 46.93125966 -38.3574765 46.93125966 -38 45 C-39.051875 45.144375 -40.10375 45.28875 -41.1875 45.4375 C-45 45 -45 45 -46.5078125 43.6171875 C-49.87450688 38.96026294 -52 34.82422425 -52 29 C-52.66 29 -53.32 29 -54 29 C-54.67119549 27.5437455 -55.33681807 26.08492133 -56 24.625 C-56.37125 23.81289062 -56.7425 23.00078125 -57.125 22.1640625 C-58 20 -58 20 -58 18 C-58.66 18 -59.32 18 -60 18 C-60.33 26.58 -60.66 35.16 -61 44 C-62.65 44.66 -64.3 45.32 -66 46 C-66 46.66 -66 47.32 -66 48 C-65.175 48.763125 -64.35 49.52625 -63.5 50.3125 C-61 53 -61 53 -60.6875 55.3671875 C-61.04666701 58.39316956 -61.94396937 60.20614869 -63.5 62.8125 C-63.9640625 63.60269531 -64.428125 64.39289063 -64.90625 65.20703125 C-65.2671875 65.79871094 -65.628125 66.39039062 -66 67 C-76.93286835 67.6277245 -76.93286835 67.6277245 -81.1875 65.125 C-83.96754967 61.86563142 -84.11644843 60.08297746 -84.0625 55.875 C-84.05347656 54.96492188 -84.04445313 54.05484375 -84.03515625 53.1171875 C-84.02355469 52.41851562 -84.01195312 51.71984375 -84 51 C-82.515 50.505 -82.515 50.505 -81 50 C-81 48.68 -81 47.36 -81 46 C-82.32 46 -83.64 46 -85 46 C-85 45.01 -85 44.02 -85 43 C-85.99 43 -86.98 43 -88 43 C-88.5345256 41.75579353 -89.05208611 40.50429064 -89.5625 39.25 C-89.85253906 38.55390625 -90.14257812 37.8578125 -90.44140625 37.140625 C-91.07831803 34.69987216 -90.80248831 33.3596345 -90 31 C-88 35 -86 39 -84 43 C-77.07 43 -70.14 43 -63 43 C-63 32.44 -63 21.88 -63 11 C-59 12 -59 12 -56.875 15.25 C-55.82414748 17.21274933 -54.94907589 19.13603671 -54.16796875 21.22265625 C-52.55695392 25.05353099 -50.50120336 28.58498465 -48.4375 32.1875 C-47.6233598 33.61829725 -46.80954248 35.04927827 -45.99609375 36.48046875 C-45.45746704 37.42249146 -45.45746704 37.42249146 -44.90795898 38.38354492 C-44.24047466 39.57187881 -43.60953634 40.78092732 -43 42 C-36.73 42.33 -30.46 42.66 -24 43 C-23.01 40.03 -23.01 40.03 -22 37 C-20.82945345 34.67539346 -19.63415915 32.39963953 -18.375 30.125 C-14.99216599 23.91726875 -11.78520604 17.64207374 -8.70263672 11.27978516 C-7.02182932 7.85624129 -5.31109929 5.08146572 -3 2 C-7.62 2 -12.24 2 -17 2 C-17.66 3.32 -18.32 4.64 -19 6 C-19.33 6 -19.66 6 -20 6 C-20 4.35 -20 2.7 -20 1 C-19.34 1 -18.68 1 -18 1 C-18 0.34 -18 -0.32 -18 -1 C-11.41318569 -1.8313455 -6.35415274 -2.11805091 0 0 Z " fill="#D2605B" transform="translate(144,57)"/>
<path d="M0 0 C1.32 0.33 2.64 0.66 4 1 C4.495 3.97 4.495 3.97 5 7 C4.34 7 3.68 7 3 7 C2.67 15.58 2.34 24.16 2 33 C0.35 33.66 -1.3 34.32 -3 35 C-3 35.66 -3 36.32 -3 37 C-2.175 37.763125 -1.35 38.52625 -0.5 39.3125 C2 42 2 42 2.3125 44.3671875 C1.95333299 47.39316956 1.05603063 49.20614869 -0.5 51.8125 C-0.9640625 52.60269531 -1.428125 53.39289063 -1.90625 54.20703125 C-2.44765625 55.09455078 -2.44765625 55.09455078 -3 56 C-13.93286835 56.6277245 -13.93286835 56.6277245 -18.1875 54.125 C-20.96754967 50.86563142 -21.11644843 49.08297746 -21.0625 44.875 C-21.05347656 43.96492188 -21.04445313 43.05484375 -21.03515625 42.1171875 C-21.02355469 41.41851562 -21.01195312 40.71984375 -21 40 C-19.515 39.505 -19.515 39.505 -18 39 C-18 37.68 -18 36.36 -18 35 C-19.32 35 -20.64 35 -22 35 C-22 34.01 -22 33.02 -22 32 C-22.99 32 -23.98 32 -25 32 C-25.5345256 30.75579353 -26.05208611 29.50429064 -26.5625 28.25 C-26.85253906 27.55390625 -27.14257812 26.8578125 -27.44140625 26.140625 C-28.07831803 23.69987216 -27.80248831 22.3596345 -27 20 C-25 24 -23 28 -21 32 C-14.07 32 -7.14 32 0 32 C0 21.44 0 10.88 0 0 Z " fill="#D04B47" transform="translate(81,68)"/>
<path d="M0 0 C2.79066464 1.3558131 3.86600558 2.55371372 6 5 C6.77152986 9.32056721 6.52747866 11.19119939 4.125 14.875 C1.4126761 17.5873239 0.53758847 17.93914093 -3.3125 18.375 C-7 18 -7 18 -9.9375 15.9375 C-12.5243831 12.25315134 -12.63151199 10.42058395 -12 6 C-9.13802567 0.01587186 -6.5466101 -0.65466101 0 0 Z " fill="#F9F3F1" transform="translate(74,104)"/>
<path d="M0 0 C5.55324134 3.29080968 5.55324134 3.29080968 6.515625 6.97265625 C6.70178541 10.52964972 6.29789758 12.61273314 4.125 15.4375 C0.30935876 18.24311856 -2.24254599 18.64507851 -7 18 C-9.41935033 16.01625046 -10.82058532 13.88675784 -12 11 C-12.14823347 6.62711251 -11.73955457 4.82407509 -8.8125 1.5625 C-5.41373205 -0.32570442 -3.82889966 -0.70326728 0 0 Z " fill="#FBF9F9" transform="translate(114,104)"/>
<path d="M0 0 C20.44039604 -1.20237624 20.44039604 -1.20237624 24.796875 2.15625 C26.67660338 5.39459395 28 8.21709801 28 12 C26.1875 11.9375 26.1875 11.9375 24 11 C22.3125 7.5625 22.3125 7.5625 21 4 C20.67 3.34 20.34 2.68 20 2 C14.39 1.67 8.78 1.34 3 1 C3 13.87 3 26.74 3 40 C4.98 40.33 6.96 40.66 9 41 C9 30.44 9 19.88 9 9 C10.32 8.34 11.64 7.68 13 7 C16 10.75 16 10.75 16 13 C17.32 13.66 18.64 14.32 20 15 C20 16.98 20 18.96 20 21 C18.04111672 18.5513959 16.44317697 16.05317043 14.9375 13.3125 C13.38390486 9.96434085 13.38390486 9.96434085 11 9 C11 20.22 11 31.44 11 43 C7.37 43 3.74 43 0 43 C0 28.81 0 14.62 0 0 Z " fill="#FBCBC6" transform="translate(29,58)"/>
<path d="M0 0 C7.59499524 5.63915987 12.84161289 11.2253307 17.98828125 19.21875 C16.99828125 19.71375 16.99828125 19.71375 15.98828125 20.21875 C15.98828125 19.55875 15.98828125 18.89875 15.98828125 18.21875 C15.36953125 18.13625 14.75078125 18.05375 14.11328125 17.96875 C11.98828125 17.21875 11.98828125 17.21875 10.73828125 15.15625 C10.36703125 14.1971875 10.36703125 14.1971875 9.98828125 13.21875 C9.32828125 13.21875 8.66828125 13.21875 7.98828125 13.21875 C7.55515625 12.47625 7.12203125 11.73375 6.67578125 10.96875 C4.05644428 6.70020086 0.52378957 4.23453148 -4.01171875 2.21875 C-4.01171875 1.55875 -4.01171875 0.89875 -4.01171875 0.21875 C-4.67171875 0.21875 -5.33171875 0.21875 -6.01171875 0.21875 C-6.01171875 -0.44125 -6.01171875 -1.10125 -6.01171875 -1.78125 C-10.96171875 -2.77125 -10.96171875 -2.77125 -16.01171875 -3.78125 C-16.01171875 -4.77125 -16.01171875 -5.76125 -16.01171875 -6.78125 C-19.31171875 -7.11125 -22.61171875 -7.44125 -26.01171875 -7.78125 C-26.01171875 -8.11125 -26.01171875 -8.44125 -26.01171875 -8.78125 C-32.15548001 -9.55304852 -38.13508639 -9.94191856 -44.32421875 -9.90625 C-45.14510986 -9.90431641 -45.96600098 -9.90238281 -46.81176758 -9.90039062 C-53.24511531 -9.85495649 -59.61563081 -9.49618199 -66.01171875 -8.78125 C-47.26243841 -21.28077023 -16.75365175 -11.86345026 0 0 Z " fill="#D05551" transform="translate(125.01171875,23.78125)"/>
<path d="M0 0 C5.4916279 4.73214745 6.89245305 11.31989535 9 18 C9.37705078 19.13115234 9.37705078 19.13115234 9.76171875 20.28515625 C15.06433415 39.20157858 8.93360191 57.46965348 0 74 C-0.625 72.1875 -0.625 72.1875 -1 70 C-0.34 69.01 0.32 68.02 1 67 C1.16713569 64.37468476 1.16713569 64.37468476 1 62 C2.32 61.34 3.64 60.68 5 60 C4.79375 59.319375 4.5875 58.63875 4.375 57.9375 C3.89542021 54.18079164 4.84796911 51.5840961 6 48 C7.11507556 43.60207962 7.1914687 39.26191664 7.1875 34.75 C7.18814453 33.99726807 7.18878906 33.24453613 7.18945312 32.46899414 C7.13805856 27.05796378 6.5176843 22.21703978 5 17 C4.67 17 4.34 17 4 17 C3.33030409 14.5424552 2.6641232 12.08405076 2 9.625 C1.80921875 8.92632812 1.6184375 8.22765625 1.421875 7.5078125 C0 2.2265625 0 2.2265625 0 0 Z " fill="#DD4744" transform="translate(143,45)"/>
<path d="M0 0 C0.33 0 0.66 0 1 0 C1.1799928 5.21979128 0.97094808 9.07262981 -1 14 C-1.66 14 -2.32 14 -3 14 C-3.8870036 33.99171643 -3.8870036 33.99171643 1 53 C1.81405557 55.80307806 2.54506268 58.61784922 3.25390625 61.44921875 C3.95516993 63.8467328 4.71899938 65.85855368 6 68 C6.66 68.33 7.32 68.66 8 69 C7.67 70.32 7.34 71.64 7 73 C-3.24385175 57.90266713 -3.24385175 57.90266713 -5 50 C-5.20109375 49.19820312 -5.4021875 48.39640625 -5.609375 47.5703125 C-9.10977124 31.62931882 -7.57957878 14.54355726 0 0 Z " fill="#D25A55" transform="translate(19,50)"/>
<path d="M0 0 C1.02544922 -0.00128906 2.05089844 -0.00257812 3.10742188 -0.00390625 C4.72680664 0.00189453 4.72680664 0.00189453 6.37890625 0.0078125 C7.45462891 0.00394531 8.53035156 0.00007813 9.63867188 -0.00390625 C11.1787793 -0.00197266 11.1787793 -0.00197266 12.75 0 C13.69673584 0.00112793 14.64347168 0.00225586 15.61889648 0.00341797 C17.94140625 0.1328125 17.94140625 0.1328125 19.94140625 1.1328125 C19.61140625 2.1228125 19.28140625 3.1128125 18.94140625 4.1328125 C18.94140625 3.4728125 18.94140625 2.8128125 18.94140625 2.1328125 C11.68140625 2.1328125 4.42140625 2.1328125 -3.05859375 2.1328125 C-3.05859375 16.3228125 -3.05859375 30.5128125 -3.05859375 45.1328125 C-4.04859375 45.6278125 -4.04859375 45.6278125 -5.05859375 46.1328125 C-6.08465756 41.0570063 -6.20413986 36.20260226 -6.19140625 31.05078125 C-6.19236298 30.19599686 -6.1933197 29.34121246 -6.19430542 28.46052551 C-6.19498297 26.66451951 -6.19315847 24.868511 -6.18896484 23.07250977 C-6.18357744 20.31195669 -6.18894106 17.55156389 -6.1953125 14.79101562 C-6.19465229 13.04427047 -6.19337231 11.29752542 -6.19140625 9.55078125 C-6.19343048 8.72168747 -6.19545471 7.89259369 -6.19754028 7.03837585 C-6.16843096 0.00735776 -6.16843096 0.00735776 0 0 Z " fill="#CF554E" transform="translate(32.05859375,55.8671875)"/>
<path d="M0 0 C0.66 0 1.32 0 2 0 C-0.39565795 8.17342126 -4.10289638 15.45933926 -8 23 C-8.66924772 24.33203968 -9.33729273 25.66469431 -10 27 C-11.32 27 -12.64 27 -14 27 C-18 19 -22 11 -26 3 C-25.34 3 -24.68 3 -24 3 C-20.50853188 7.65248643 -17.36293868 12.66855485 -15.3125 18.125 C-14.31942031 21.15334014 -14.31942031 21.15334014 -11.8125 21.9375 C-11.214375 21.958125 -10.61625 21.97875 -10 22 C-10.103125 20.741875 -10.20625 19.48375 -10.3125 18.1875 C-10.3203125 15.94921875 -10.3203125 15.94921875 -10 14 C-8.36935236 12.94228261 -6.69719127 11.94726954 -5 11 C-4.00049423 9.01778687 -3.3300274 7.05677587 -2.67578125 4.9375 C-2 3 -2 3 0 0 Z " fill="#CE5D59" transform="translate(122,63)"/>
<path d="M0 0 C-0.33 0.99 -0.66 1.98 -1 3 C-1.99 2.67 -2.98 2.34 -4 2 C-4 12.56 -4 23.12 -4 34 C-10.93 34 -17.86 34 -25 34 C-25.495 32.515 -25.495 32.515 -26 31 C-19.4 31.33 -12.8 31.66 -6 32 C-6 21.77 -6 11.54 -6 1 C-2 0 -2 0 0 0 Z " fill="#FBE2DB" transform="translate(85,66)"/>
<path d="M0 0 C5.55324134 3.29080968 5.55324134 3.29080968 6.515625 6.97265625 C6.70178541 10.52964972 6.29789758 12.61273314 4.125 15.4375 C0.30935876 18.24311856 -2.24254599 18.64507851 -7 18 C-9.41935033 16.01625046 -10.82058532 13.88675784 -12 11 C-12.14823347 6.62711251 -11.73955457 4.82407509 -8.8125 1.5625 C-5.41373205 -0.32570442 -3.82889966 -0.70326728 0 0 Z M-8 2 C-9.31157516 4.62315032 -8.89649988 6.23033436 -8.5625 9.125 C-8.46066406 10.03507812 -8.35882813 10.94515625 -8.25390625 11.8828125 C-8.17011719 12.58148438 -8.08632812 13.28015625 -8 14 C-5.24921116 14.91692961 -3.64051087 15.10886083 -0.8125 15.0625 C0.445625 15.041875 1.70375 15.02125 3 15 C4.82177738 11.24928186 5.36624071 8.99362668 4 5 C2.34830534 2.68762748 1.29096999 2.08952923 -1.4375 1.25 C-3.99073259 1.00090414 -5.62106527 1.0654185 -8 2 Z " fill="#FAD5CF" transform="translate(114,104)"/>
<path d="M0 0 C0 0.66 0 1.32 0 2 C-0.90363281 1.84015625 -1.80726562 1.6803125 -2.73828125 1.515625 C-8.20139649 0.74164937 -13.67934181 0.77630762 -19.1875 0.75 C-20.77788086 0.7190625 -20.77788086 0.7190625 -22.40039062 0.6875 C-30.01658904 0.65037045 -36.70863995 1.85046829 -44 4 C-44.75724365 4.21132568 -45.5144873 4.42265137 -46.29467773 4.64038086 C-47.86689604 5.0803036 -49.43430191 5.53740738 -51 6 C-51 5.34 -51 4.68 -51 4 C-35.94654413 -3.22565882 -15.92278958 -5.92779782 0 0 Z " fill="#FEDFD9" transform="translate(103,11)"/>
<path d="M0 0 C0.6875 2.0625 0.6875 2.0625 1 4 C0.34 4 -0.32 4 -1 4 C-1.12375 4.556875 -1.2475 5.11375 -1.375 5.6875 C-3.20879121 12.47252747 -3.20879121 12.47252747 -7 15 C-7.8125 13 -7.8125 13 -8 10 C-6.57036763 7.11406302 -4.84731397 4.65832986 -3 2 C-7.62 2 -12.24 2 -17 2 C-17.66 3.32 -18.32 4.64 -19 6 C-19.33 6 -19.66 6 -20 6 C-20 4.35 -20 2.7 -20 1 C-19.34 1 -18.68 1 -18 1 C-18 0.34 -18 -0.32 -18 -1 C-11.41318569 -1.8313455 -6.35415274 -2.11805091 0 0 Z " fill="#DE473F" transform="translate(144,57)"/>
<path d="M0 0 C7.26 0 14.52 0 22 0 C24.475 4.455 24.475 4.455 27 9 C26.67 9.66 26.34 10.32 26 11 C25.34 11 24.68 11 24 11 C24 9.35 24 7.7 24 6 C23.34 6 22.68 6 22 6 C21.34 5.01 20.68 4.02 20 3 C18.07558585 2.49468134 18.07558585 2.49468134 15.8671875 2.48828125 C14.77833252 2.43861206 14.77833252 2.43861206 13.66748047 2.38793945 C12.28520264 2.35059692 12.28520264 2.35059692 10.875 2.3125 C7.94625 2.209375 5.0175 2.10625 2 2 C1.67 12.23 1.34 22.46 1 33 C-0.32 32.67 -1.64 32.34 -3 32 C-2.01 32 -1.02 32 0 32 C0 21.44 0 10.88 0 0 Z " fill="#FAD3CA" transform="translate(70,58)"/>
<path d="M0 0 C0.99 0 1.98 0 3 0 C5.08648893 2.08648893 5.93785493 3.38873697 6.23828125 6.34375 C5.96188123 9.42493056 5.07802653 11.16930557 3.5 13.8125 C2.80390625 14.99779297 2.80390625 14.99779297 2.09375 16.20703125 C1.7328125 16.79871094 1.371875 17.39039062 1 18 C-9.86386139 18.62376238 -9.86386139 18.62376238 -14.1875 16.25 C-17.11135104 12.62039181 -17.08243638 10.97274928 -16.6875 6.3125 C-16.460625 5.219375 -16.23375 4.12625 -16 3 C-15.34 2.67 -14.68 2.34 -14 2 C-14.04640625 2.60328125 -14.0928125 3.2065625 -14.140625 3.828125 C-14.4000821 8.94583673 -14.4000821 8.94583673 -12.4375 13.5625 C-9.00082919 15.58925458 -6.92582814 15.6198676 -3 15 C0.08333333 13.08333333 0.08333333 13.08333333 2 10 C2.53603554 5.55856266 2.50031654 3.75047482 0 0 Z " fill="#D3554F" transform="translate(77,106)"/>
<path d="M0 0 C0.66 1.32 1.32 2.64 2 4 C-9.42168675 16.76419966 -9.42168675 16.76419966 -16 22 C-16.763125 22.61875 -17.52625 23.2375 -18.3125 23.875 C-20 25 -20 25 -22 25 C-21.375 22.5625 -21.375 22.5625 -20 20 C-16.875 19.1875 -16.875 19.1875 -14 19 C-14.20625 18.236875 -14.4125 17.47375 -14.625 16.6875 C-15 14 -15 14 -13 11 C-11.00577205 10.63371323 -9.00546689 10.29868656 -7 10 C-6.67 9.34 -6.34 8.68 -6 8 C-5.34 8 -4.68 8 -4 8 C-3.34 6.35 -2.68 4.7 -2 3 C-1.34 3 -0.68 3 0 3 C0 2.01 0 1.02 0 0 Z " fill="#D84E47" transform="translate(140,117)"/>
<path d="M0 0 C-8.06637124 6.77371393 -19.49192998 6.45629411 -29.5 6.3125 C-31.22863281 6.31733398 -31.22863281 6.31733398 -32.9921875 6.32226562 C-42.20223892 6.26322683 -42.20223892 6.26322683 -46 4 C-45.27522461 3.98018066 -44.55044922 3.96036133 -43.80371094 3.93994141 C-40.45216966 3.84343664 -37.10114824 3.73427657 -33.75 3.625 C-32.61046875 3.5940625 -31.4709375 3.563125 -30.296875 3.53125 C-20.16111728 3.1857128 -9.90146617 -0.26760719 0 0 Z " fill="#CA534E" transform="translate(112,145)"/>
<path d="M0 0 C2.3125 0.1875 2.3125 0.1875 5 1 C6.75 3.4375 6.75 3.4375 8 6 C8.33 6.66 8.66 7.32 9 8 C10.32 8 11.64 8 13 8 C13.33 8.99 13.66 9.98 14 11 C17.57429292 14.77606752 21.15761994 17.14850174 26 19 C26.33 19.99 26.66 20.98 27 22 C23.51329166 20.8905928 20.22515763 19.73662334 17 18 C17 17.34 17 16.68 17 16 C16.29359375 15.78214844 15.5871875 15.56429687 14.859375 15.33984375 C11.32374899 13.68312282 8.92586012 11.32851713 6.25 8.5625 C5.75628906 8.07201172 5.26257812 7.58152344 4.75390625 7.07617188 C2.44722631 4.73473374 1.05312613 3.15937838 0 0 Z " fill="#D25651" transform="translate(27,123)"/>
<path d="M0 0 C0.33 0 0.66 0 1 0 C5.59061771 18.65863974 -0.22220621 35.75795401 -9 52 C-9.625 50.1875 -9.625 50.1875 -10 48 C-9.34 47.01 -8.68 46.02 -8 45 C-8.061875 43.7625 -8.061875 43.7625 -8.125 42.5 C-8.08375 41.675 -8.0425 40.85 -8 40 C-7.38382813 39.58363281 -6.76765625 39.16726562 -6.1328125 38.73828125 C-1.53890534 34.99416277 -0.75534836 27.67635297 0 22 C0.44088571 14.67278017 0.26123145 7.33156122 0 0 Z " fill="#CA605C" transform="translate(152,67)"/>
<path d="M0 0 C4.42679007 1.47559669 4.91432696 3.90057368 7 8 C7 8.66 7 9.32 7 10 C4.525 9.01 4.525 9.01 2 8 C2 16.25 2 24.5 2 33 C1.34 33 0.68 33 0 33 C0 22.11 0 11.22 0 0 Z " fill="#CF534C" transform="translate(40,67)"/>
<path d="M0 0 C0.33 0 0.66 0 1 0 C1 10.56 1 21.12 1 32 C0.01 32 -0.98 32 -2 32 C-3.65 28.37 -5.3 24.74 -7 21 C-5.68 21.33 -4.36 21.66 -3 22 C-3 23.65 -3 25.3 -3 27 C-2.34 27 -1.68 27 -1 27 C-1.00523682 26.25314941 -1.01047363 25.50629883 -1.01586914 24.73681641 C-1.03660401 21.36621943 -1.04964899 17.99563586 -1.0625 14.625 C-1.07087891 13.449375 -1.07925781 12.27375 -1.08789062 11.0625 C-1.09111328 9.94101563 -1.09433594 8.81953125 -1.09765625 7.6640625 C-1.10289307 6.62717285 -1.10812988 5.5902832 -1.11352539 4.52197266 C-1 2 -1 2 0 0 Z " fill="#D44E4C" transform="translate(69,58)"/>
<path d="M0 0 C0.66 0.33 1.32 0.66 2 1 C-1.41245832 4.71355758 -4.47530881 6.83601726 -9 9 C-9.474375 9.495 -9.94875 9.99 -10.4375 10.5 C-13.79705961 13.72517723 -18.5468992 14.96257432 -23 16 C-17.50977757 8.24909775 -8.99150489 2.9971683 0 0 Z " fill="#D95550" transform="translate(57,15)"/>
<path d="M0 0 C1.39456452 0.00667256 2.78911118 0.01863093 4.18359375 0.03515625 C4.89451172 0.03966797 5.60542969 0.04417969 6.33789062 0.04882812 C8.09899388 0.06064761 9.86005411 0.07858362 11.62109375 0.09765625 C11.07839844 1.11085937 10.53570312 2.1240625 9.9765625 3.16796875 C9.25386406 4.51950869 8.53121018 5.87107246 7.80859375 7.22265625 C7.45216797 7.8878125 7.09574219 8.55296875 6.72851562 9.23828125 C4.63166703 13.16265843 2.5912928 17.10753703 0.62109375 21.09765625 C0.29109375 21.09765625 -0.03890625 21.09765625 -0.37890625 21.09765625 C-0.37890625 19.44765625 -0.37890625 17.79765625 -0.37890625 16.09765625 C0.28109375 16.09765625 0.94109375 16.09765625 1.62109375 16.09765625 C1.62109375 14.77765625 1.62109375 13.45765625 1.62109375 12.09765625 C2.28109375 12.09765625 2.94109375 12.09765625 3.62109375 12.09765625 C3.74484375 11.37578125 3.86859375 10.65390625 3.99609375 9.91015625 C4.61158685 7.14043731 5.50553749 4.70062085 6.62109375 2.09765625 C3.32109375 2.42765625 0.02109375 2.75765625 -3.37890625 3.09765625 C-3.37890625 4.08765625 -3.37890625 5.07765625 -3.37890625 6.09765625 C-4.36890625 6.42765625 -5.35890625 6.75765625 -6.37890625 7.09765625 C-4.15199463 0.11999984 -4.15199463 0.11999984 0 0 Z " fill="#FDDBD6" transform="translate(130.37890625,57.90234375)"/>
<path d="M0 0 C0.33 0 0.66 0 1 0 C2.14262745 8.68396865 -4.12698267 16.4575092 -8.66796875 23.3828125 C-9.32732422 24.18332031 -9.32732422 24.18332031 -10 25 C-10.66 25 -11.32 25 -12 25 C-12 25.66 -12 26.32 -12 27 C-13.32 26.67 -14.64 26.34 -16 26 C-15.5875 25.608125 -15.175 25.21625 -14.75 24.8125 C-8.35059202 18.18454173 -4.86666535 10.24259881 -1 2 C-0.67 1.34 -0.34 0.68 0 0 Z " fill="#FAD7D1" transform="translate(150,103)"/>
<path d="M0 0 C0.33 0 0.66 0 1 0 C1.1799928 5.21979128 0.97094808 9.07262981 -1 14 C-1.66 14 -2.32 14 -3 14 C-3 14.99 -3 15.98 -3 17 C-3.66 17 -4.32 17 -5 17 C-5.33 24.26 -5.66 31.52 -6 39 C-6.33 39 -6.66 39 -7 39 C-7.48275165 25.23263802 -6.49862537 12.46944361 0 0 Z " fill="#D67571" transform="translate(19,50)"/>
<path d="M0 0 C1.65 0 3.3 0 5 0 C7.20440155 5.23545369 7.65684458 10.38784265 7 16 C6.34 16.99 5.68 17.98 5 19 C2.375 19.1875 2.375 19.1875 0 19 C0.66 18.67 1.32 18.34 2 18 C2.96847302 15.09458095 3.19582812 13.03362546 3.25 10 C3.27578125 9.13375 3.3015625 8.2675 3.328125 7.375 C2.93579115 4.53525019 2.0936911 3.85126371 0 2 C0 1.34 0 0.68 0 0 Z " fill="#DC4840" transform="translate(116,102)"/>
<path d="M0 0 C0.66 0 1.32 0 2 0 C-0.13766171 7.244298 -3.22684019 13.46718285 -7 20 C-7.66 20 -8.32 20 -9 20 C-9.33 18.02 -9.66 16.04 -10 14 C-9.236875 13.67 -8.47375 13.34 -7.6875 13 C-4.4312239 10.57672476 -3.84089653 8.71161574 -2.67578125 4.9375 C-2 3 -2 3 0 0 Z " fill="#D45C58" transform="translate(122,63)"/>
<path d="M0 0 C2.75028078 2.37524249 3.76194844 4.6159924 5 8 C5.66 9.32 6.32 10.64 7 12 C13.93 12 20.86 12 28 12 C28 12.33 28 12.66 28 13 C17.11 13.495 17.11 13.495 6 14 C6 13.34 6 12.68 6 12 C5.01 12 4.02 12 3 12 C2.49166409 10.75336669 1.99368855 9.50250613 1.5 8.25 C1.2215625 7.55390625 0.943125 6.8578125 0.65625 6.140625 C0 4 0 4 0 0 Z " fill="#D96F68" transform="translate(53,88)"/>
<path d="M0 0 C1.9375 0.75 1.9375 0.75 4 2 C4.33333333 3.33333333 4.66666667 4.66666667 5 6 C6.9837767 7.28436734 6.9837767 7.28436734 9 8 C9 9.98 9 11.96 9 14 C6.23455278 10.54319097 4.15078722 6.85658398 2 3 C1.34 3 0.68 3 0 3 C-0.33 12.24 -0.66 21.48 -1 31 C-1.33 31 -1.66 31 -2 31 C-2.04939115 26.90661348 -2.08571501 22.81334202 -2.10986328 18.71972656 C-2.11992877 17.32679219 -2.13358234 15.93387898 -2.15087891 14.54101562 C-2.1751022 12.5404564 -2.18540814 10.53974385 -2.1953125 8.5390625 C-2.20578613 7.33459473 -2.21625977 6.13012695 -2.22705078 4.88916016 C-2 2 -2 2 0 0 Z " fill="#FEF0EC" transform="translate(40,65)"/>
<path d="M0 0 C3.58305992 -0.11627503 7.16563417 -0.1872736 10.75 -0.25 C11.76578125 -0.28351562 12.7815625 -0.31703125 13.828125 -0.3515625 C21.34678623 -0.45049225 21.34678623 -0.45049225 24.71875 1.875 C26 4 26 4 25.75 6.25 C25.5025 6.8275 25.255 7.405 25 8 C24.73574219 7.19175781 24.47148438 6.38351563 24.19921875 5.55078125 C22.29093236 2.82166704 22.29093236 2.82166704 19.68994141 2.49365234 C16.72351415 2.28069137 13.78649656 2.20434454 10.8125 2.1875 C9.77673828 2.16236328 8.74097656 2.13722656 7.67382812 2.11132812 C5.11550421 2.05238057 2.55889395 2.01615743 0 2 C0 1.34 0 0.68 0 0 Z " fill="#CA5552" transform="translate(70,56)"/>
<path d="M0 0 C0.99 0.33 1.98 0.66 3 1 C3 2.32 3 3.64 3 5 C3.66 5 4.32 5 5 5 C5.33 6.65 5.66 8.3 6 10 C6.66 10 7.32 10 8 10 C8 11.32 8 12.64 8 14 C8.66 14 9.32 14 10 14 C10.67119549 15.4562545 11.33681807 16.91507867 12 18.375 C12.37125 19.18710938 12.7425 19.99921875 13.125 20.8359375 C14 23 14 23 14 25 C14.66 25 15.32 25 16 25 C15.67 25.99 15.34 26.98 15 28 C9.76719201 21.30834857 0 8.7522269 0 0 Z " fill="#FCDCD4" transform="translate(85,69)"/>
<path d="M0 0 C1.98 0.99 3.96 1.98 6 3 C6 3.66 6 4.32 6 5 C6.86882813 5.2784375 7.73765625 5.556875 8.6328125 5.84375 C11.79304705 6.92893495 14.81235139 8.16770724 17.875 9.5 C22.55770703 11.47934873 27.0320422 12.94908585 32 14 C32 14.33 32 14.66 32 15 C25.64198914 14.62900943 20.73817248 13.75873677 15 11 C13.00736409 10.31163487 11.00958663 9.63718601 9 9 C9 8.34 9 7.68 9 7 C7.68 6.67 6.36 6.34 5 6 C5 5.34 5 4.68 5 4 C4.360625 3.896875 3.72125 3.79375 3.0625 3.6875 C2.381875 3.460625 1.70125 3.23375 1 3 C0.67 2.01 0.34 1.02 0 0 Z " fill="#FCD8D4" transform="translate(38,136)"/>
<path d="M0 0 C0.66 0 1.32 0 2 0 C1 7 1 7 0.46875 10.09375 C-0.10803275 14.9002729 -0.10774902 19.60281586 -0.0625 24.4375 C-0.05798828 25.35982422 -0.05347656 26.28214844 -0.04882812 27.23242188 C-0.03713938 29.48835048 -0.02075455 31.74413967 0 34 C-0.66 33.67 -1.32 33.34 -2 33 C-2.05813173 28.43755363 -2.09364122 23.87520276 -2.125 19.3125 C-2.14175781 18.01892578 -2.15851562 16.72535156 -2.17578125 15.39257812 C-2.18222656 14.14541016 -2.18867188 12.89824219 -2.1953125 11.61328125 C-2.20578613 10.46641846 -2.21625977 9.31955566 -2.22705078 8.13793945 C-2.00058489 5.00808345 -1.33456032 2.81920095 0 0 Z " fill="#FEE9E5" transform="translate(13,59)"/>
<path d="M0 0 C0.33 0.66 0.66 1.32 1 2 C0.06553465 4.03144641 -0.93224776 6.03533587 -2 8 C-2.66 8 -3.32 8 -4 8 C-4.27585937 8.57234375 -4.55171875 9.1446875 -4.8359375 9.734375 C-5.99467848 11.98964267 -7.26875706 14.10856378 -8.625 16.25 C-9.07101563 16.95640625 -9.51703125 17.6628125 -9.9765625 18.390625 C-10.48316406 19.18726563 -10.48316406 19.18726563 -11 20 C-11.66 19.67 -12.32 19.34 -13 19 C-11.48491885 14.61943929 -9.14699232 11.01329578 -6.5 7.25 C-6.09652344 6.66089844 -5.69304688 6.07179688 -5.27734375 5.46484375 C-2.2567791 1.12838955 -2.2567791 1.12838955 0 0 Z " fill="#CF5C54" transform="translate(33,31)"/>
<path d="M0 0 C0.99 0.33 1.98 0.66 3 1 C4.1875 4.0625 4.1875 4.0625 5 7 C4.01 7.495 4.01 7.495 3 8 C2.67 7.34 2.34 6.68 2 6 C1.67 13.26 1.34 20.52 1 28 C-0.65 28.33 -2.3 28.66 -4 29 C-4 29.99 -4 30.98 -4 32 C-4.66 31.67 -5.32 31.34 -6 31 C-5.505 29.515 -5.505 29.515 -5 28 C-3.68 27.67 -2.36 27.34 -1 27 C-0.67 18.09 -0.34 9.18 0 0 Z " fill="#E5443E" transform="translate(83,74)"/>
<path d="M0 0 C0.33 0.66 0.66 1.32 1 2 C-0.89963643 6.11587893 -2.97724027 7.98862013 -7 10 C-7.99 10.33 -8.98 10.66 -10 11 C-11.20882096 13.00016466 -11.20882096 13.00016466 -12 15 C-14.31 15 -16.62 15 -19 15 C-16.08236013 12.77639456 -13.09414245 10.68969332 -10.0625 8.625 C-6.3013307 6.00829285 -3.07741632 3.38515796 0 0 Z " fill="#F9D5D0" transform="translate(133,130)"/>
<path d="M0 0 C0.99 0.33 1.98 0.66 3 1 C2.484375 1.70125 1.96875 2.4025 1.4375 3.125 C-0.34465847 6.68931695 -0.12464715 8.22439886 1 12 C1.83333333 14.5 1.83333333 14.5 4 16 C7.02804256 16.33346117 9.96677127 16.22892292 13 16 C13 16.66 13 17.32 13 18 C9.21812119 19.83691257 7.05431692 20.15837626 3 19 C3 18.34 3 17.68 3 17 C2.34 17 1.68 17 1 17 C1 16.01 1 15.02 1 14 C0.34 14 -0.32 14 -1 14 C-2.51516221 10.96967558 -2.17028053 8.34885038 -2 5 C-1 2.0625 -1 2.0625 0 0 Z " fill="#CE625A" transform="translate(103,105)"/>
<path d="M0 0 C18.9247387 -1.63883295 18.9247387 -1.63883295 23.73046875 2.15625 C25.60801855 5.3828541 27 8.22267256 27 12 C25.1875 11.9375 25.1875 11.9375 23 11 C21.3125 7.5625 21.3125 7.5625 20 4 C19.67 3.34 19.34 2.68 19 2 C12.73 1.67 6.46 1.34 0 1 C0 0.67 0 0.34 0 0 Z " fill="#FCD5D0" transform="translate(30,58)"/>
<path d="M0 0 C1.32 0.33 2.64 0.66 4 1 C4.33 2.32 4.66 3.64 5 5 C5.99 5 6.98 5 8 5 C12.40774487 14.41002278 12.40774487 14.41002278 13 19 C8.13764704 13.16517645 3.22375058 6.91031683 0 0 Z " fill="#FDE0DC" transform="translate(135,32)"/>
<path d="M0 0 C1.32 0.33 2.64 0.66 4 1 C4.33 2.32 4.66 3.64 5 5 C3.68 4.67 2.36 4.34 1 4 C1 13.24 1 22.48 1 32 C0.67 32 0.34 32 0 32 C0 21.44 0 10.88 0 0 Z " fill="#B86864" transform="translate(81,68)"/>
<path d="M0 0 C0 0.66 0 1.32 0 2 C-0.98742187 2.02578125 -1.97484375 2.0515625 -2.9921875 2.078125 C-4.27351562 2.13484375 -5.55484375 2.1915625 -6.875 2.25 C-8.15117187 2.29640625 -9.42734375 2.3428125 -10.7421875 2.390625 C-14.09188105 2.62555056 -14.09188105 2.62555056 -15.4453125 5.046875 C-15.62835938 5.69140625 -15.81140625 6.3359375 -16 7 C-16.33 7 -16.66 7 -17 7 C-17 5.35 -17 3.7 -17 2 C-16.34 2 -15.68 2 -15 2 C-15 1.34 -15 0.68 -15 0 C-4.44191344 -1.33257403 -4.44191344 -1.33257403 0 0 Z " fill="#C8534E" transform="translate(141,56)"/>
<path d="M0 0 C1.65 0 3.3 0 5 0 C2.76972679 2.39311856 0.43997238 4.11607982 -2.3125 5.875 C-6.1194791 8.36322164 -9.5739416 11.01317986 -13 14 C-13 12.68 -13 11.36 -13 10 C-11.68 9.67 -10.36 9.34 -9 9 C-9 8.34 -9 7.68 -9 7 C-8.34 7 -7.68 7 -7 7 C-7 6.34 -7 5.68 -7 5 C-2.61538462 2 -2.61538462 2 0 2 C0 1.34 0 0.68 0 0 Z " fill="#FCDFD8" transform="translate(45,18)"/>
<path d="M0 0 C2 4 2 4 2.71875 6.09375 C3.87570539 8.28229912 3.87570539 8.28229912 6.6015625 8.609375 C8.09816406 8.67898437 8.09816406 8.67898437 9.625 8.75 C11.12933594 8.83507812 11.12933594 8.83507812 12.6640625 8.921875 C13.43492188 8.94765625 14.20578125 8.9734375 15 9 C12.74079325 11.57412647 12.2128254 11.96847031 8.625 12.5 C5 12 5 12 2.0625 9.9375 C-0.45543836 6.35134537 -0.4206933 4.29107165 0 0 Z " fill="#F6CAC2" transform="translate(62,110)"/>
<path d="M0 0 C0.99 0.33 1.98 0.66 3 1 C3.6875 3.0625 3.6875 3.0625 4 5 C3.01 4.67 2.02 4.34 1 4 C1 13.57 1 23.14 1 33 C0.67 33 0.34 33 0 33 C0 22.11 0 11.22 0 0 Z " fill="#D9756D" transform="translate(40,67)"/>
<path d="M0 0 C0.33 0 0.66 0 1 0 C1 10.56 1 21.12 1 32 C0.01 32 -0.98 32 -2 32 C-2.33 30.68 -2.66 29.36 -3 28 C-2.01 28.33 -1.02 28.66 0 29 C0 19.43 0 9.86 0 0 Z " fill="#C45854" transform="translate(69,58)"/>
<path d="M0 0 C0.33 0 0.66 0 1 0 C1 8.25 1 16.5 1 25 C0.34 25 -0.32 25 -1 25 C-1 25.66 -1 26.32 -1 27 C-1.66 27 -2.32 27 -3 27 C-2.86722656 26.3915625 -2.73445312 25.783125 -2.59765625 25.15625 C-0.91319889 16.79543974 -0.40515668 8.4976283 0 0 Z " fill="#FDE4DC" transform="translate(154,74)"/>
<path d="M0 0 C3.96 0 7.92 0 12 0 C8 3 8 3 6 3 C5.67 3.99 5.34 4.98 5 6 C4.01 6.495 4.01 6.495 3 7 C2.59270772 9.32156597 2.25561323 11.6568787 2 14 C1.67 14 1.34 14 1 14 C1 11.36 1 8.72 1 6 C1.99 5.67 2.98 5.34 4 5 C4 3.68 4 2.36 4 1 C2.68 0.67 1.36 0.34 0 0 Z " fill="#DC4843" transform="translate(59,102)"/>
<path d="M0 0 C3.99525073 2.39715044 4.73296238 4.60760293 6 9 C6.55046088 10.23460511 7.1131705 11.46381598 7.6875 12.6875 C9 16 9 16 8 19 C6.46621464 16.21526125 4.9502442 13.42121662 3.4375 10.625 C2.99986328 9.8309375 2.56222656 9.036875 2.11132812 8.21875 C1.70205078 7.45820312 1.29277344 6.69765625 0.87109375 5.9140625 C0.48880615 5.2123291 0.10651855 4.5105957 -0.28735352 3.78759766 C-0.52252686 3.19769043 -0.7577002 2.6077832 -1 2 C-0.67 1.34 -0.34 0.68 0 0 Z " fill="#CE5453" transform="translate(53,59)"/>
<path d="M0 0 C2.25 -0.25 2.25 -0.25 5 0 C6.37562854 1.28965176 7.70766393 2.62689293 9 4 C10.3303125 4.5259375 10.3303125 4.5259375 11.6875 5.0625 C12.450625 5.371875 13.21375 5.68125 14 6 C14.33 6.99 14.66 7.98 15 9 C11.51329166 7.8905928 8.22515763 6.73662334 5 5 C5 4.34 5 3.68 5 3 C2.525 2.01 2.525 2.01 0 1 C0 0.67 0 0.34 0 0 Z " fill="#CE645F" transform="translate(39,136)"/>
<path d="M0 0 C3.8164806 3.25258946 5.18804024 6.42339139 6.8125 11.125 C7.25207031 12.36507812 7.69164062 13.60515625 8.14453125 14.8828125 C9 18 9 18 8 20 C5 13.375 5 13.375 5 10 C4.01 9.67 3.02 9.34 2 9 C1.26953125 6.93359375 1.26953125 6.93359375 0.8125 4.4375 C0.65394531 3.61121094 0.49539062 2.78492188 0.33203125 1.93359375 C0.16767578 0.97646484 0.16767578 0.97646484 0 0 Z " fill="#CA615D" transform="translate(143,45)"/>
<path d="M0 0 C0.66 0.33 1.32 0.66 2 1 C-1.258263 4.9099156 -4.11661592 5.82125212 -9 7 C-11.00361307 7.65572791 -13.00491933 8.31875294 -15 9 C-12.41676876 6.0117325 -9.44464763 4.50570453 -5.9375 2.75 C-4.87402344 2.20859375 -3.81054688 1.6671875 -2.71484375 1.109375 C-1.81894531 0.74328125 -0.92304687 0.3771875 0 0 Z " fill="#CD6661" transform="translate(57,15)"/>
<path d="M0 0 C0.66 0.33 1.32 0.66 2 1 C1.360625 1.103125 0.72125 1.20625 0.0625 1.3125 C-0.618125 1.539375 -1.29875 1.76625 -2 2 C-2.33 2.99 -2.66 3.98 -3 5 C-5.64458379 6.32229189 -7.67761301 6.09677194 -10.625 6.0625 C-11.62789063 6.05347656 -12.63078125 6.04445312 -13.6640625 6.03515625 C-14.43492188 6.02355469 -15.20578125 6.01195312 -16 6 C-13.20330895 4.52839263 -10.443226 3.40889368 -7.4375 2.4375 C-6.67308594 2.18871094 -5.90867187 1.93992188 -5.12109375 1.68359375 C-4.42113281 1.45800781 -3.72117187 1.23242188 -3 1 C-2.01 0.67 -1.02 0.34 0 0 Z " fill="#FBDED4" transform="translate(112,145)"/>
<path d="M0 0 C2.31 0 4.62 0 7 0 C7 0.66 7 1.32 7 2 C7.66 2 8.32 2 9 2 C9.66 3.65 10.32 5.3 11 7 C6.89188572 5.55007731 3.53144334 3.54592427 0 1 C0 0.67 0 0.34 0 0 Z " fill="#F6D2CB" transform="translate(116,18)"/>
<path d="M0 0 C2.00130916 2.54712074 3.85727656 4.9527375 5 8 C4.625 10.25 4.625 10.25 4 12 C1.95780294 10.30820672 1.08206694 9.36272334 0.48828125 6.73828125 C0.43027344 5.93777344 0.37226562 5.13726562 0.3125 4.3125 C0.24675781 3.50425781 0.18101563 2.69601563 0.11328125 1.86328125 C0.07589844 1.24839844 0.03851563 0.63351563 0 0 Z " fill="#F8E0D6" transform="translate(62,80)"/>
<path d="M0 0 C0.6875 1.6875 0.6875 1.6875 1 4 C-0.3125 6.75 -0.3125 6.75 -2 9 C-2.66 9 -3.32 9 -4 9 C-4.33 7.02 -4.66 5.04 -5 3 C-3.35 2.01 -1.7 1.02 0 0 Z " fill="#D7514F" transform="translate(117,74)"/>
<path d="M0 0 C0.66 0 1.32 0 2 0 C0.22054913 4.04420651 -2.39529673 7.46078487 -5 11 C-6 8 -6 8 -5.3125 5.375 C-4 3 -4 3 -1.875 2.1875 C-1.25625 2.125625 -0.6375 2.06375 0 2 C0 1.34 0 0.68 0 0 Z " fill="#FDE0DA" transform="translate(29,32)"/>
<path d="M0 0 C0.96846689 2.61486062 1.04559628 3.8442127 0.25 6.5625 C-0.95399982 8.91029965 -2.1205204 10.20223691 -4 12 C-4.33 12.99 -4.66 13.98 -5 15 C-5.66 14.67 -6.32 14.34 -7 14 C-4.66666667 9.33333333 -2.33333333 4.66666667 0 0 Z " fill="#FAD9CF" transform="translate(120,72)"/>
<path d="M0 0 C0.66 1.32 1.32 2.64 2 4 C0.71283353 5.00578589 -0.57988658 6.00446798 -1.875 7 C-2.95394531 7.8353125 -2.95394531 7.8353125 -4.0546875 8.6875 C-6 10 -6 10 -8 10 C-7.375 7.5625 -7.375 7.5625 -6 5 C-2.875 4.1875 -2.875 4.1875 0 4 C0 2.68 0 1.36 0 0 Z " fill="#D85854" transform="translate(126,132)"/>
<path d="M0 0 C3.3 0 6.6 0 10 0 C9.67 0.99 9.34 1.98 9 3 C9.66 3.33 10.32 3.66 11 4 C9 5 9 5 5.5 4.25 C2 3 2 3 0 0 Z " fill="#C55655" transform="translate(67,101)"/>
<path d="M0 0 C0.33 0.66 0.66 1.32 1 2 C1.66 2 2.32 2 3 2 C3.66 4.97 4.32 7.94 5 11 C3.35 10.67 1.7 10.34 0 10 C0 6.7 0 3.4 0 0 Z " fill="#E34640" transform="translate(140,42)"/>
<path d="M0 0 C3.96 0 7.92 0 12 0 C12 0.66 12 1.32 12 2 C8.21812119 3.83691257 6.05431692 4.15837626 2 3 C2 2.34 2 1.68 2 1 C1.34 0.67 0.68 0.34 0 0 Z " fill="#D5524D" transform="translate(104,121)"/>
<path d="M0 0 C1 2 1 2 0.875 5.375 C1.00605183 9.17550316 1.43210977 10.32511434 4 13 C3.01 13.495 3.01 13.495 2 14 C-0.0625 12.5625 -0.0625 12.5625 -2 10 C-2.10781211 6.91657367 -1.71177387 3.99918391 -1 1 C-0.67 0.67 -0.34 0.34 0 0 Z " fill="#D45855" transform="translate(62,108)"/>
<path d="M0 0 C3.70951453 3.70951453 5.09691727 9.16909769 7 14 C6.01 14 5.02 14 4 14 C3.67 12.02 3.34 10.04 3 8 C2.34 8 1.68 8 1 8 C0.67 5.36 0.34 2.72 0 0 Z " fill="#FCDDD6" transform="translate(15,103)"/>
<path d="M0 0 C1.9375 0.375 1.9375 0.375 4 1 C5.35439668 3.70879335 5.06501451 6.00933268 5 9 C1.13892543 6.42595029 1.05680308 4.38979741 0 0 Z " fill="#D85451" transform="translate(92,88)"/>
<path d="M0 0 C0.99 0.33 1.98 0.66 3 1 C3.71727778 2.64551962 4.38325228 4.31422289 5 6 C5.66 6.66 6.32 7.32 7 8 C7.125 10.625 7.125 10.625 7 13 C5.5 11.625 5.5 11.625 4 10 C4 9.34 4 8.68 4 8 C3.34 8 2.68 8 2 8 C1.34 5.36 0.68 2.72 0 0 Z " fill="#E14644" transform="translate(94,58)"/>
<path d="M0 0 C0.66 0 1.32 0 2 0 C2.19658808 1.41543415 2.38187546 2.83244031 2.5625 4.25 C2.66691406 5.03890625 2.77132812 5.8278125 2.87890625 6.640625 C3.00027349 9.00532874 2.69633257 10.7511037 2 13 C0.35 13 -1.3 13 -3 13 C-2.34 12.67 -1.68 12.34 -1 12 C-0.03929566 9.11788698 0.10581883 7.30149956 0.0625 4.3125 C0.05347656 3.50425781 0.04445313 2.69601563 0.03515625 1.86328125 C0.02355469 1.24839844 0.01195313 0.63351563 0 0 Z " fill="#CD605B" transform="translate(119,108)"/>
<path d="M0 0 C0.33 0.66 0.66 1.32 1 2 C0.67 2.66 0.34 3.32 0 4 C-0.66 4 -1.32 4 -2 4 C-2.12375 5.299375 -2.2475 6.59875 -2.375 7.9375 C-2.5859375 10.15234375 -2.5859375 10.15234375 -3 12 C-3.99 12.495 -3.99 12.495 -5 13 C-4.64989059 4.80743982 -4.64989059 4.80743982 -1.9375 1.4375 C-1.298125 0.963125 -0.65875 0.48875 0 0 Z " fill="#D4524B" transform="translate(127,88)"/>
<path d="M0 0 C1.39195915 4.17587745 -0.17676781 6.13474776 -2 10 C-2.99 10 -3.98 10 -5 10 C-3.84414715 6.08788267 -2.64465038 3.1254959 0 0 Z " fill="#D2645F" transform="translate(141,59)"/>
<path d="M0 0 C1.485 0.99 1.485 0.99 3 2 C3.375 5.4375 3.375 5.4375 3 9 C2.01 9.99 1.02 10.98 0 12 C0 8.04 0 4.08 0 0 Z " fill="#FCD3CF" transform="translate(77,107)"/>
<path d="M0 0 C4.61513112 1.31860889 8.09897612 3.21355437 12 6 C9 7 9 7 6.9921875 6.328125 C6.29351562 5.97234375 5.59484375 5.6165625 4.875 5.25 C4.17117187 4.90453125 3.46734375 4.5590625 2.7421875 4.203125 C1 3 1 3 0 0 Z " fill="#D15F58" transform="translate(110,16)"/>
<path d="M0 0 C2.16147703 1.08073852 3.41039672 2.19363264 5 4 C5 4.66 5 5.32 5 6 C-1.75 5.25 -1.75 5.25 -4 3 C-2.68 3 -1.36 3 0 3 C0 2.01 0 1.02 0 0 Z " fill="#F7D7D2" transform="translate(107,10)"/>
<path d="M0 0 C3.09592835 3.5087188 4.74194623 6.49197399 6 11 C5.34 11 4.68 11 4 11 C4 10.34 4 9.68 4 9 C3.34 9 2.68 9 2 9 C0.50178941 5.62902617 0 3.79557881 0 0 Z " fill="#CD625D" transform="translate(47,77)"/>
<path d="M0 0 C3.09592835 3.5087188 4.74194623 6.49197399 6 11 C3 10 3 10 1.3125 7.1875 C0 4 0 4 0 0 Z " fill="#F9D4CC" transform="translate(97,69)"/>
<path d="M0 0 C3.73487777 0.4979837 5.81237635 0.87491756 9 3 C8.67 3.99 8.34 4.98 8 6 C6.02 5.01 4.04 4.02 2 3 C2 2.34 2 1.68 2 1 C1.34 0.67 0.68 0.34 0 0 Z " fill="#D6534A" transform="translate(119,23)"/>
<path d="M0 0 C-3.69172595 3.53790403 -7.09390595 3.59115883 -12 4 C-12 3.34 -12 2.68 -12 2 C-7.8803623 0.70756464 -4.33168317 -0.26252625 0 0 Z " fill="#CD6057" transform="translate(112,145)"/>
<path d="M0 0 C1.31896465 0.92838287 2.62998689 1.86805732 3.9375 2.8125 C4.66839844 3.33457031 5.39929688 3.85664063 6.15234375 4.39453125 C8 6 8 6 9 9 C8.34 9 7.68 9 7 9 C6.67 8.34 6.34 7.68 6 7 C4.02477154 5.95191959 2.02518491 4.9479589 0 4 C0 2.68 0 1.36 0 0 Z " fill="#D1605B" transform="translate(128,27)"/>
<path d="M0 0 C0.99 0.33 1.98 0.66 3 1 C3.6875 3.0625 3.6875 3.0625 4 5 C3.01 4.67 2.02 4.34 1 4 C1 6.64 1 9.28 1 12 C0.67 12 0.34 12 0 12 C0 8.04 0 4.08 0 0 Z " fill="#C77A71" transform="translate(40,67)"/>
<path d="M0 0 C-1.2491742 3.45925163 -2.67527795 6.14693203 -5 9 C-4.4140625 2.84765625 -4.4140625 2.84765625 -4 1 C-2 0 -2 0 0 0 Z " fill="#FCE1DA" transform="translate(130,79)"/>
<path d="M0 0 C0.66 0 1.32 0 2 0 C2 0.66 2 1.32 2 2 C3.32 2.66 4.64 3.32 6 4 C6 5.98 6 7.96 6 10 C3.47650757 6.87567603 1.72743854 3.61939504 0 0 Z " fill="#FCD9D7" transform="translate(43,69)"/>
<path d="M0 0 C1.32 0 2.64 0 4 0 C4.33 0.99 4.66 1.98 5 3 C5.66 3.66 6.32 4.32 7 5 C5.35 5 3.7 5 2 5 C1.34 3.35 0.68 1.7 0 0 Z " fill="#D64F48" transform="translate(36,131)"/>
<path d="M0 0 C0.66 0 1.32 0 2 0 C2 0.66 2 1.32 2 2 C2.66 2 3.32 2 4 2 C4.66 4.31 5.32 6.62 6 9 C5.01 8.34 4.02 7.68 3 7 C3 6.01 3 5.02 3 4 C2.01 3.67 1.02 3.34 0 3 C0 2.01 0 1.02 0 0 Z " fill="#E14244" transform="translate(49,86)"/>
<path d="M0 0 C4 2 4 2 6 5 C5.67 6.32 5.34 7.64 5 9 C3.35 6.03 1.7 3.06 0 0 Z " fill="#F9D4D1" transform="translate(142,42)"/>
<path d="M0 0 C-1.1446875 0.8971875 -1.1446875 0.8971875 -2.3125 1.8125 C-4.3483575 3.46959332 -6.1978279 5.10297674 -8 7 C-6.53511706 1.38461538 -6.53511706 1.38461538 -4 -0.4375 C-2 -1 -2 -1 0 0 Z " fill="#E3443E" transform="translate(40,30)"/>
<path d="M0 0 C1.32 0.66 2.64 1.32 4 2 C2.68 2 1.36 2 0 2 C0 2.99 0 3.98 0 5 C-1.32 5 -2.64 5 -4 5 C-3 2 -3 2 0 0 Z " fill="#FDF1EB" transform="translate(52,13)"/>
<path d="M0 0 C2.97 0.33 5.94 0.66 9 1 C9.33 1.99 9.66 2.98 10 4 C6.7 3.01 3.4 2.02 0 1 C0 0.67 0 0.34 0 0 Z " fill="#CD6662" transform="translate(54,145)"/>
<path d="M0 0 C3.77001757 0.40978452 5.80106814 0.86737876 9 3 C2.9453125 3.1953125 2.9453125 3.1953125 1 3 C0.34 2.34 -0.32 1.68 -1 1 C-0.67 0.67 -0.34 0.34 0 0 Z " fill="#F8F8F2" transform="translate(49,146)"/>
<path d="M0 0 C1.98 1.65 3.96 3.3 6 5 C4.68 5.33 3.36 5.66 2 6 C0 3 0 3 0 0 Z " fill="#FAD5D0" transform="translate(32,130)"/>
<path d="M0 0 C2.31 0 4.62 0 7 0 C3.25 3 3.25 3 1 3 C0.67 3.66 0.34 4.32 0 5 C0 3.35 0 1.7 0 0 Z " fill="#D14D4E" transform="translate(64,102)"/>
<path d="M0 0 C-0.60183749 2.02045442 -1.27306096 4.02111039 -2 6 C-2.99 6.495 -2.99 6.495 -4 7 C-4 5.02 -4 3.04 -4 1 C-2 0 -2 0 0 0 Z " fill="#FCE5D9" transform="translate(125,88)"/>
<path d="M0 0 C0.33 0 0.66 0 1 0 C1 2.97 1 5.94 1 9 C0.01 9 -0.98 9 -2 9 C-2.33 7.68 -2.66 6.36 -3 5 C-2.01 5.33 -1.02 5.66 0 6 C0 4.02 0 2.04 0 0 Z " fill="#BC605E" transform="translate(69,81)"/>
<path d="M0 0 C0.99 0 1.98 0 3 0 C1.7508258 3.45925163 0.32472205 6.14693203 -2 9 C-2 7.35 -2 5.7 -2 4 C-1.34 4 -0.68 4 0 4 C0 2.68 0 1.36 0 0 Z " fill="#FCD6CE" transform="translate(132,70)"/>
<path d="M0 0 C0.99 0.33 1.98 0.66 3 1 C3 2.32 3 3.64 3 5 C3.66 5 4.32 5 5 5 C5.33 5.99 5.66 6.98 6 8 C4.125 7.375 4.125 7.375 2 6 C0.75 2.875 0.75 2.875 0 0 Z " fill="#FEE3DB" transform="translate(85,69)"/>
</svg>
